<svg width="1372" height="544" viewBox="0 0 1372 544" fill="none" xmlns="http://www.w3.org/2000/svg">
<g clip-path="url(#clip0_212_16580)" filter="url(#filter0_f_212_16580)">
<path opacity="0.15" d="M1306.19 237.88C1339.7 274.97 1366.88 339.451 1316.8 384.973C1311.63 389.666 1263.18 432.248 1190.3 426.96C1101.54 420.52 1083.34 350.812 985.382 332.716C879.298 313.119 817.037 379.425 765.231 359.056C703.971 334.97 696.451 205.071 807.331 149.396C940.906 82.3255 1216.08 138.151 1306.19 237.88Z" fill="#EBC136"/>
<path opacity="0.15" d="M471.245 429.639C502.307 410.569 536.155 372.148 515.134 333.285C512.966 329.278 492.262 292.654 443.679 283.834C384.505 273.09 355.162 316.52 287.092 311.996C213.375 307.096 189.688 252.301 150.971 257.114C105.189 262.806 67.6268 348.21 125.514 404.149C195.248 471.538 387.723 480.917 471.245 429.639Z" fill="#EBC136"/>
<path opacity="0.15" d="M653.575 321.89C638.187 300.799 622.464 260.221 635.947 222.859C637.337 219.007 650.519 183.857 676.878 178.297C708.983 171.526 722.013 216.799 758.481 216.823C797.973 216.849 813.817 163.774 834.122 171.155C858.131 179.883 873.044 267.57 838.945 319.508C797.865 382.075 694.953 378.602 653.575 321.89Z" fill="#EBC136"/>
<path opacity="0.15" d="M641.467 274.802C658.284 264.124 676.622 242.633 665.276 220.936C664.107 218.699 652.931 198.254 626.654 193.363C594.649 187.407 578.745 211.693 541.923 209.218C502.047 206.538 489.27 175.943 468.321 178.661C443.55 181.876 423.171 229.62 454.448 260.828C492.128 298.423 596.247 303.514 641.467 274.802Z" fill="#EBC136"/>
<path opacity="0.15" d="M1365.62 248.365C1383.76 232.046 1403.7 199.494 1391.95 167.192C1390.74 163.861 1379.14 133.43 1351.17 126.595C1317.09 118.269 1299.7 154.965 1260.42 151.946C1217.89 148.678 1204.75 103.066 1182.34 107.534C1155.83 112.818 1133.28 184.751 1166.15 230.934C1205.76 286.569 1316.86 292.244 1365.62 248.365Z" fill="#8047F8"/>
<path opacity="0.15" d="M1377.61 377.852C1391.71 388.804 1407.15 410.725 1397.84 432.622C1396.88 434.88 1387.7 455.511 1365.82 460.261C1339.16 466.047 1325.73 441.312 1295.03 443.533C1261.79 445.938 1251.35 476.841 1233.86 473.922C1213.17 470.471 1195.84 421.932 1221.71 390.552C1252.88 352.749 1339.69 348.404 1377.61 377.852Z" fill="#8047F8"/>
<path opacity="0.15" d="M178.937 136.892C191.507 158.616 203.932 200.056 191.695 237.492C190.433 241.351 178.5 276.558 156.055 281.502C128.717 287.524 118.675 241.405 87.7918 240.442C54.347 239.4 39.7653 292.665 22.7319 284.678C2.59039 275.234 -8.117 186.175 21.8998 134.53C58.0604 72.3152 145.139 78.4763 178.937 136.892Z" fill="#EBC136"/>
<path opacity="0.15" d="M820.507 432.947C794.621 413.727 769.462 375.18 795.926 336.528C798.654 332.543 824.434 296.123 871.6 287.62C929.048 277.262 949.109 320.78 1013.84 316.683C1083.94 312.246 1115.66 257.712 1151.2 262.753C1193.23 268.713 1213.76 354.166 1149.71 409.631C1072.55 476.449 890.112 484.627 820.507 432.947Z" fill="#EBC136"/>
<path opacity="0.15" d="M746.922 399.538C768.564 380.513 791.249 343.904 773.967 310.187C772.185 306.71 755.248 274.989 719.43 269.962C675.805 263.84 656.654 304.687 606.868 304.695C552.953 304.704 532.92 256.808 504.979 263.46C471.939 271.327 448.942 350.444 493.931 397.321C548.129 453.792 688.728 450.695 746.922 399.538Z" fill="#8047F8"/>
<path opacity="0.15" d="M794.472 141.004C835.019 151.666 878.079 171.465 847.336 188.257C844.167 189.989 813.993 205.762 748.11 207.009C667.863 208.528 631.181 186.67 539.369 184.784C439.943 182.742 404.601 206.767 352.852 202.269C291.66 196.95 246.602 155.145 328 132.591C426.058 105.42 685.443 112.335 794.472 141.004Z" fill="#8047F8"/>
<path opacity="0.15" d="M127.139 382.866C146.225 360.714 166.35 318.381 151.454 279.978C149.918 276.018 135.31 239.899 103.98 234.685C65.82 228.335 48.7611 275.475 5.16319 276.25C-42.0509 277.089 -59.2558 222.467 -83.7709 230.526C-112.76 240.056 -133.458 331.145 -94.3915 384.214C-47.3292 448.144 75.8163 442.431 127.139 382.866Z" fill="#8047F8"/>
</g>
<defs>
<filter id="filter0_f_212_16580" x="-228" y="-160" width="1760" height="864" filterUnits="userSpaceOnUse" color-interpolation-filters="sRGB">
<feFlood flood-opacity="0" result="BackgroundImageFix"/>
<feBlend mode="normal" in="SourceGraphic" in2="BackgroundImageFix" result="shape"/>
<feGaussianBlur stdDeviation="80" result="effect1_foregroundBlur_212_16580"/>
</filter>
<clipPath id="clip0_212_16580">
<rect width="1440" height="544" fill="white" transform="translate(-68)"/>
</clipPath>
</defs>
</svg>
